# File created by Blade
# Date/Time:  Mon Nov 18 18:33:23 2013
# Frame Rate: 100.000 fps
#------------------------------------------------------
:FULLY-SPECIFIED
:DEGREES
244
root 52.942327 -4.144458 52.142446 -3.876805 0.101399 -125.798695
Spine 13.067399 -0.522227 -0.599637
Spine1 3.536275 1.638516 -1.501674
Spine2 0.933983 -1.241497 -1.246029
NeckDummy -0.001379 -0.160905 -0.025795 -1.329399 1.051700 -0.427297
Neck 14.882695 0.646144 27.465416
Head -0.305911 0.359892 0.192351 -34.252959 -4.166441 -0.682896
LeftShoulderDummy -0.061173 -0.151005 0.028607 -1.308014 0.929461 -0.210153
LeftShoulder 7.273242 -3.420930 14.248057
LeftArm 22.036557 50.939304 30.626087
LeftForeArm 89.834489
LeftForeArmRoll -36.847447
LeftHand -9.396528 5.469806 -4.674681
LeftHandThumb1 17.233657 12.947410
LeftHandIndex1 14.217323 43.871724
LeftHandPinky1 13.620112 48.304145
RightShoulderDummy -0.037519 -0.138754 0.047646 -1.349913 -1.048889 0.420047
RightShoulder 5.651295 4.646068 17.323157
RightArm -39.221302 70.285678 -1.965543
RightForeArm 112.419835
RightForeArmRoll 3.740765
RightHand -17.799723 -16.048378 11.576195
RightHandThumb1 -0.434753 13.854649
RightHandIndex1 13.671529 61.543272
RightHandPinky1 18.627493 69.666607
LeftUpLeg 3.506061 22.389250 -36.307940
LeftLeg 62.337377
LeftFoot 0.653325 -1.030329 -0.958719 -12.490688 10.441860 -15.809943
LeftToeBase -1.158234
RightUpLeg 10.592590 12.199230 -26.708774
RightLeg 68.690623
RightFoot -0.550408 0.447021 0.261482 -0.365489 7.335025 -35.144814
RightToeBase -1.036358
245
root 52.943678 -4.149035 52.134868 -3.856085 0.063325 -125.777212
Spine 13.051994 -0.520393 -0.594290
Spine1 3.518343 1.646715 -1.494573
Spine2 0.934258 -1.213330 -1.319460
NeckDummy -0.001002 -0.158107 -0.026076 -1.353337 1.102863 -0.429047
Neck 14.952191 0.636372 27.461332
Head -0.305479 0.356356 0.191857 -34.241009 -4.151698 -0.684541
LeftShoulderDummy -0.059553 -0.147621 0.028752 -1.330854 0.980580 -0.215843
LeftShoulder 7.389715 -3.502414 14.262772
LeftArm 22.099028 50.863501 30.669589
LeftForeArm 89.809530
LeftForeArmRoll -36.802570
LeftHand -9.462315 5.494358 -4.660732
LeftHandThumb1 17.159146 12.941481
LeftHandIndex1 14.295374 43.792037
LeftHandPinky1 13.672977 48.240660
RightShoulderDummy -0.037157 -0.135743 0.049450 -1.373685 -1.100306 0.421621
RightShoulder 5.645543 4.657571 17.314675
RightArm -39.323778 70.260949 -2.043768
RightForeArm 112.344803
RightForeArmRoll 3.744832
RightHand -17.860798 -15.995774 11.657237
RightHandThumb1 -0.438181 13.766916
RightHandIndex1 13.748225 61.458938
RightHandPinky1 18.833718 70.026366
LeftUpLeg 3.504230 22.470639 -36.349934
LeftLeg 62.381121
LeftFoot 0.647275 -1.030614 -0.950815 -12.501789 10.355058 -15.848027
LeftToeBase -1.191910
RightUpLeg 10.664364 12.177850 -26.705336
RightLeg 68.692487
RightFoot -0.550977 0.446719 0.262493 -0.266020 7.295313 -35.154751
RightToeBase -1.096132
246
root 52.945639 -4.153325 52.129922 -3.826508 0.041497 -125.764296
Spine 13.048024 -0.564113 -0.540438
Spine1 3.521785 1.617720 -1.379086
Spine2 0.883017 -1.037426 -1.571602
NeckDummy 0.000316 -0.159832 -0.024757 -1.334108 1.276293 -0.421374
Neck 14.992572 0.531087 27.381494
Head -0.303642 0.359860 0.191330 -34.259851 -4.092403 -0.656173
LeftShoulderDummy -0.059156 -0.149727 0.025625 -1.311699 1.154009 -0.202728
LeftShoulder 7.353127 -3.589134 14.226290
LeftArm 22.051187 50.927416 30.677462
LeftForeArm 89.768391
LeftForeArmRoll -36.828285
LeftHand -9.427917 5.412025 -4.623074
LeftHandThumb1 17.217094 13.045927
LeftHandIndex1 14.368988 44.049316
LeftHandPinky1 13.720421 48.379526
RightShoulderDummy -0.035886 -0.137551 0.053121 -1.354969 -1.272007 0.412160
RightShoulder 5.600363 4.798928 17.416241
RightArm -39.398790 70.305409 -2.029010
RightForeArm 112.306277
RightForeArmRoll 3.486026
RightHand -17.834130 -16.407879 11.473810
RightHandThumb1 -0.785192 14.081694
RightHandIndex1 14.187970 61.756239
RightHandPinky1 19.029088 70.479638
LeftUpLeg 3.518285 22.528600 -36.395262
LeftLeg 62.400109
LeftFoot 0.649301 -1.037431 -0.968345 -12.471998 10.152913 -15.877097
LeftToeBase -1.140105
RightUpLeg 10.684327 12.151571 -26.731159
RightLeg 68.717937
RightFoot -0.550633 0.446892 0.259028 -0.258276 7.304351 -35.197199
RightToeBase -1.068698
247
root 52.946518 -4.155535 52.126241 -3.798936 0.043594 -125.748060
Spine 13.012702 -0.560003 -0.560945
Spine1 3.510671 1.603265 -1.422974
Spine2 0.907192 -1.086411 -1.494214
NeckDummy 0.000201 -0.158858 -0.025434 -1.336860 1.226053 -0.432300
Neck 14.998434 0.559962 27.399281
Head -0.304271 0.358396 0.189729 -34.212537 -4.120058 -0.672141
LeftShoulderDummy -0.059406 -0.149039 0.025980 -1.314742 1.104361 -0.215726
LeftShoulder 7.347102 -3.562032 14.238230
LeftArm 22.053938 50.939362 30.663988
LeftForeArm 89.750464
LeftForeArmRoll -36.822897
LeftHand -9.469236 5.464672 -4.634796
LeftHandThumb1 17.139795 13.054799
LeftHandIndex1 14.391398 43.798100
LeftHandPinky1 13.768817 48.224668
RightShoulderDummy -0.036330 -0.136518 0.051672 -1.357516 -1.222420 0.423699
RightShoulder 5.607611 4.759601 17.358657
RightArm -39.445263 70.282183 -2.107400
RightForeArm 112.296001
RightForeArmRoll 3.652047
RightHand -17.830846 -16.099762 11.618395
RightHandThumb1 -0.461947 13.802233
RightHandIndex1 13.793090 61.403321
RightHandPinky1 18.829850 69.677303
LeftUpLeg 3.564608 22.571064 -36.439427
LeftLeg 62.432351
LeftFoot 0.650196 -1.033447 -0.945178 -12.586802 10.215333 -15.882463
LeftToeBase -1.175341
RightUpLeg 10.703074 12.156801 -26.750696
RightLeg 68.712416
RightFoot -0.554641 0.444834 0.261591 -0.355499 7.324885 -35.224692
RightToeBase -1.018890
248
root 52.945326 -4.154338 52.120113 -3.786678 0.027075 -125.713015
Spine 12.988787 -0.535081 -0.592297
Spine1 3.510978 1.617685 -1.489368
Spine2 0.926418 -1.183487 -1.422736
NeckDummy -0.000099 -0.158385 -0.025864 -1.331905 1.179907 -0.444239
Neck 14.965007 0.597484 27.445889
Head -0.306045 0.356819 0.189868 -34.200153 -4.134934 -0.696257
LeftShoulderDummy -0.059233 -0.148534 0.026421 -1.309498 1.058629 -0.231530
LeftShoulder 7.392632 -3.533916 14.281155
LeftArm 22.109642 50.891125 30.712340
LeftForeArm 89.747406
LeftForeArmRoll -36.783527
LeftHand -9.460724 5.519501 -4.616047
LeftHandThumb1 17.128967 12.984216
LeftHandIndex1 14.355390 43.705918
LeftHandPinky1 13.734031 48.117764
RightShoulderDummy -0.036894 -0.135912 0.050386 -1.351976 -1.177254 0.436643
RightShoulder 5.586165 4.725501 17.285300
RightArm -39.565778 70.316465 -2.197575
RightForeArm 112.232042
RightForeArmRoll 3.408929
RightHand -17.795257 -16.367106 11.571450
RightHandThumb1 -0.636492 13.999858
RightHandIndex1 14.102704 61.526521
RightHandPinky1 19.076770 69.848800
LeftUpLeg 3.586215 22.609776 -36.451013
LeftLeg 62.376669
LeftFoot 0.657428 -1.040838 -0.979771 -12.358137 10.030990 -15.825092
LeftToeBase -1.196213
RightUpLeg 10.736129 12.146614 -26.728300
RightLeg 68.704854
RightFoot -0.548124 0.440913 0.258213 -0.254890 7.333867 -35.182439
RightToeBase -1.120725
249
root 52.945711 -4.151023 52.112121 -3.769410 0.020033 -125.726562
Spine 12.981775 -0.583328 -0.549594
Spine1 3.515728 1.614156 -1.412236
Spine2 0.891833 -1.082235 -1.577221
NeckDummy 0.000438 -0.160216 -0.024945 -1.321032 1.282646 -0.429821
Neck 15.029500 0.500055 27.426940
Head -0.305138 0.358586 0.189403 -34.189547 -4.114849 -0.680466
LeftShoulderDummy -0.057683 -0.150096 0.024810 -1.298560 1.161840 -0.218619
LeftShoulder 7.419375 -3.611318 14.259017
LeftArm 22.085684 50.882719 30.702888
LeftForeArm 89.732743
LeftForeArmRoll -36.743701
LeftHand -9.451112 5.503911 -4.645734
LeftHandThumb1 17.139508 13.076647
LeftHandIndex1 14.403608 43.770640
LeftHandPinky1 13.774182 48.134477
RightShoulderDummy -0.035801 -0.137999 0.052825 -1.341254 -1.279449 0.421851
RightShoulder 5.543012 4.835407 17.322023
RightArm -39.685796 70.338618 -2.307999
RightForeArm 112.221738
RightForeArmRoll 3.335231
RightHand -17.792572 -16.186838 11.417592
RightHandThumb1 -0.855074 13.982983
RightHandIndex1 14.316613 61.265497
RightHandPinky1 19.248948 69.554526
LeftUpLeg 3.617990 22.669936 -36.454079
LeftLeg 62.390867
LeftFoot 0.646309 -1.033120 -0.948309 -12.582833 10.094005 -15.858431
LeftToeBase -1.166094
RightUpLeg 10.725631 12.110247 -26.731041
RightLeg 68.678153
RightFoot -0.550798 0.446533 0.261283 -0.222412 7.355492 -35.223548
RightToeBase -1.072347
250
root 52.944125 -4.146714 52.104499 -3.766826 0.004525 -125.694967
Spine 12.961651 -0.564940 -0.576233
Spine1 3.509038 1.608628 -1.465638
Spine2 0.942888 -1.160433 -1.423726
NeckDummy -0.000121 -0.159190 -0.026457 -1.334563 1.177825 -0.438175
Neck 14.981322 0.559827 27.417949
Head -0.306936 0.355532 0.190540 -34.183549 -4.137597 -0.705991
LeftShoulderDummy -0.058551 -0.149031 0.026099 -1.311973 1.056516 -0.227034
LeftShoulder 7.353906 -3.509916 14.190070
LeftArm 22.034976 50.992651 30.588513
LeftForeArm 89.753302
LeftForeArmRoll -36.781424
LeftHand -9.430195 5.476225 -4.643034
LeftHandThumb1 17.147476 13.115724
LeftHandIndex1 14.415295 43.830079
LeftHandPinky1 13.776897 48.159014
RightShoulderDummy -0.036659 -0.136759 0.050059 -1.354245 -1.175839 0.430769
RightShoulder 5.550188 4.782183 17.262534
RightArm -39.776270 70.335750 -2.424052
RightForeArm 112.207924
RightForeArmRoll 3.367694
RightHand -17.821257 -16.469288 11.554091
RightHandThumb1 -0.800580 13.984766
RightHandIndex1 14.241276 61.690452
RightHandPinky1 19.030976 70.355821
LeftUpLeg 3.630034 22.704771 -36.446335
LeftLeg 62.329304
LeftFoot 0.658015 -1.030199 -0.960207 -12.864342 10.109868 -15.853070
LeftToeBase -0.888178
RightUpLeg 10.773864 12.117351 -26.695026
RightLeg 68.656791
RightFoot -0.546998 0.443917 0.258555 -0.322539 7.338511 -35.229526
RightToeBase -1.050965
